<svg width="30" height="36" viewBox="0 0 30 36" fill="none" xmlns="http://www.w3.org/2000/svg">
<path d="M4.44311 14.4783C2.49847 14.4783 0.924789 16.0519 0.924789 17.9967C0.924789 19.9417 2.49847 21.5156 4.44311 21.5156C6.38845 21.5156 7.96213 19.9417 7.96213 17.9967C7.96213 16.052 6.38845 14.4783 4.44311 14.4783ZM11.2168 26.0967L8.95481 23.399C12.1683 20.7083 12.1683 15.2788 8.95215 12.5916L11.2067 9.89043C13.6182 11.9077 14.9999 14.8629 14.9999 17.9968C14.9999 21.1309 13.6219 24.0827 11.2168 26.0967ZM16.2575 31.0377L13.8932 28.4296C16.8348 25.7665 18.5185 21.9659 18.5185 17.9967C18.5185 14.0308 16.8348 10.2303 13.9001 7.56693L16.2645 4.96215C19.9346 8.29262 22.0374 13.0421 22.0374 17.9967C22.0375 22.9555 19.9276 27.7081 16.2575 31.0377ZM21.2572 36L18.8551 33.4298C23.1133 29.4506 25.5565 23.8249 25.5565 17.9968C25.5565 12.0825 23.1783 6.60534 18.8622 2.57077L21.268 0.000114441C26.2296 4.63958 29.0752 11.1999 29.0752 17.9969C29.0752 24.7976 26.2264 31.3575 21.2572 36Z" fill="#64C423"/>
</svg>
